<?xml version="1.0" encoding="iso-8859-1"?>
<!-- Generator: Adobe Illustrator 19.1.0, SVG Export Plug-In . SVG Version: 6.00 Build 0)  -->
<svg xmlns="http://www.w3.org/2000/svg" xmlns:xlink="http://www.w3.org/1999/xlink" version="1.1" id="Capa_1" x="0px" y="0px" viewBox="0 0 412.957 412.957" style="enable-background:new 0 0 412.957 412.957;" xml:space="preserve" width="512px" height="512px">
<g>
	<path d="M399.543,342.037l-27.665-22.635c-10.06-7.545-22.635-10.06-35.21-5.03l-37.725-35.21   C412.118,158.444,407.088,20.12,407.088,12.575c0-5.03-2.515-7.545-5.03-10.06S394.513,0,391.998,0   c-7.545,2.515-153.414,40.24-254.013,130.779l-35.21-27.665c0,0,0,0-2.515,0c7.545-15.09,5.03-32.695-5.03-42.755L67.566,37.725   c-12.575-10.06-35.21-7.545-45.27,5.03L14.751,50.3c-12.575,15.09-10.06,35.21,5.03,45.27l27.665,22.635   c5.03,5.03,12.575,7.545,20.12,7.545s15.09-2.515,20.12-7.545l0,0l30.18,27.665C14.751,248.983,4.691,407.427,2.176,412.457   c5.03,2.515,155.929,0,279.163-118.204l37.725,35.21c-10.06,12.575-7.545,35.21,5.03,45.27l27.665,22.635   c5.03,5.03,12.575,7.545,20.12,7.545c10.06,0,20.12-5.03,25.15-12.575l7.545-7.545   C414.633,374.732,412.118,354.612,399.543,342.037z M80.141,90.539l-7.545,7.545c-2.515,2.515-5.03,5.03-10.06,0l-27.665-20.12   c-2.515-2.515-2.515-7.545,0-10.06l5.03-10.06c2.515,0,5.03-2.515,7.545-2.515c0,0,2.515,0,5.03,2.515l27.665,22.635   C80.141,82.994,82.656,88.024,80.141,90.539z M226.01,289.223c-12.575,12.575-27.665,17.605-45.27,17.605   s-32.695-7.545-45.27-17.605c-25.15-25.15-25.15-65.389,0-88.024l20.12-17.605l93.054,85.509L226.01,289.223z M281.339,236.408   l-12.575,12.575l-93.054-85.509l17.605-17.605c22.635-22.635,65.389-25.15,88.024,0   C303.974,171.019,303.974,211.258,281.339,236.408z M384.453,372.217l-7.545,7.545c-2.515,2.515-5.03,5.03-10.06,0l-27.665-22.635   c-2.515-2.515-2.515-7.545,0-10.06l7.545-7.545c2.515-2.515,2.515-2.515,5.03-2.515c0,0,2.515,0,5.03,2.515l27.665,22.635   C386.968,364.672,386.968,369.702,384.453,372.217z" fill="#FFFFFF"/>
</g>
<g>
</g>
<g>
</g>
<g>
</g>
<g>
</g>
<g>
</g>
<g>
</g>
<g>
</g>
<g>
</g>
<g>
</g>
<g>
</g>
<g>
</g>
<g>
</g>
<g>
</g>
<g>
</g>
<g>
</g>
</svg>
